<svg height='300px' width='300px'  fill="currentColor" xmlns="http://www.w3.org/2000/svg" xmlns:xlink="http://www.w3.org/1999/xlink" version="1.1" x="0px" y="0px" viewBox="0 0 34 34" enable-background="new 0 0 34 34" xml:space="preserve"><path d="M13,13.5c0,1.104-0.896,2-2,2l0,0c-1.104,0-2-0.896-2-2v-3c0-1.104,0.896-2,2-2l0,0c1.104,0,2,0.896,2,2V13.5z"></path><polygon points="31,21.929 29.598,20.5 28.5,21.618 28.5,8.5 26.5,8.5 26.5,21.618 25.402,20.5 24,21.929 26.098,24.065   26.092,24.071 27.494,25.5 27.5,25.494 27.506,25.5 28.908,24.071 28.902,24.065 "></polygon><path d="M11,3c4.411,0,8,3.589,8,8v12c0,4.411-3.589,8-8,8s-8-3.589-8-8V11C3,6.589,6.589,3,11,3 M11,1C5.477,1,1,5.477,1,11v12  c0,5.522,4.477,10,10,10c5.523,0,10-4.478,10-10V11C21,5.477,16.523,1,11,1L11,1z"></path></svg>
